<?xml version="1.0" encoding="UTF-8" standalone="no"?>
<svg
   xmlns:dc="http://purl.org/dc/elements/1.1/"
   xmlns:cc="http://creativecommons.org/ns#"
   xmlns:rdf="http://www.w3.org/1999/02/22-rdf-syntax-ns#"
   xmlns:svg="http://www.w3.org/2000/svg"
   xmlns="http://www.w3.org/2000/svg"
   viewBox="0 0 50.666668 48"
   height="48"
   width="50.666668"
   xml:space="preserve"
   id="svg2"
   version="1.1"><metadata
     id="metadata8"><rdf:RDF><cc:Work
         rdf:about=""><dc:format>image/svg+xml</dc:format><dc:type
           rdf:resource="http://purl.org/dc/dcmitype/StillImage" /></cc:Work></rdf:RDF></metadata><defs
     id="defs6"><clipPath
       id="clipPath20"
       clipPathUnits="userSpaceOnUse"><path
         style="clip-rule:evenodd"
         id="path18"
         d="M 27.27909,36 C 24.0444,36 21.01609,34.5462 19,32.11087 16.98391,34.54661 13.9556,36 10.72091,36 4.809505,36 0,31.22694 0,25.35941 0,20.76519 2.760324,15.45095 8.204033,9.564771 12.39291,5.03541 16.9504,1.527885 18.2472,0.5609636 L 18.99958,0 19.75238,0.5609636 C 21.04918,1.527885 25.60668,5.034995 29.79597,9.564771 35.23968,15.45095 38,20.76519 38,25.35941 38,31.22694 33.19049,36 27.27909,36 Z M 27.95025,11.24652 C 24.50447,7.520891 20.79717,4.508846 18.99958,3.120943 17.20241,4.508846 13.49553,7.520891 10.04975,11.24652 5.114132,16.58303 2.505495,21.46333 2.505495,25.35941 c 0,4.4962 3.685269,8.15387 8.215415,8.15387 2.98101,0 5.73361,-1.61244 7.18335,-4.20847 L 19,27.34299 l 1.09574,1.96182 c 1.44974,2.59603 4.20234,4.20847 7.18335,4.20847 4.53015,0 8.21542,-3.65767 8.21542,-8.15387 0,-3.89608 -2.60864,-8.77638 -7.54426,-14.11289 z" /></clipPath><clipPath
       id="clipPath26"
       clipPathUnits="userSpaceOnUse"><path
         id="path24"
         d="M -536,-1230 H 214 V 103 h -750 z" /></clipPath></defs><g
     transform="matrix(1.3333333,0,0,-1.3333333,0,48)"
     id="g10"><g
       id="g12" /><g
       id="g14"><g
         clip-path="url(#clipPath20)"
         id="g16"><g
           clip-path="url(#clipPath26)"
           id="g22"><path
             id="path28"
             style="fill:#ffffff;fill-opacity:1;fill-rule:nonzero;stroke:none"
             d="M -5,41 H 43 V -5 H -5 Z" /></g></g></g></g></svg>