<?xml version="1.0" encoding="UTF-8" standalone="no"?>
<svg
   xmlns:dc="http://purl.org/dc/elements/1.1/"
   xmlns:cc="http://creativecommons.org/ns#"
   xmlns:rdf="http://www.w3.org/1999/02/22-rdf-syntax-ns#"
   xmlns:svg="http://www.w3.org/2000/svg"
   xmlns="http://www.w3.org/2000/svg"
   viewBox="0 0 50.666668 48"
   height="48"
   width="50.666668"
   xml:space="preserve"
   id="svg2"
   version="1.1"><metadata
     id="metadata8"><rdf:RDF><cc:Work
         rdf:about=""><dc:format>image/svg+xml</dc:format><dc:type
           rdf:resource="http://purl.org/dc/dcmitype/StillImage" /></cc:Work></rdf:RDF></metadata><defs
     id="defs6"><clipPath
       id="clipPath20"
       clipPathUnits="userSpaceOnUse"><path
         style="clip-rule:evenodd"
         id="path18"
         d="M 27.27909,36 C 24.0444,36 21.01609,34.5462 19,32.11087 16.98391,34.54661 13.9556,36 10.72091,36 4.809505,36 0,31.22694 0,25.35941 0,20.76519 2.760324,15.45095 8.204033,9.564771 12.39291,5.03541 16.9504,1.527885 18.2472,0.5609636 L 18.99958,0 19.75238,0.5609636 C 21.04918,1.527885 25.60668,5.034995 29.79597,9.564771 35.23968,15.45095 38,20.76519 38,25.35941 38,31.22694 33.19049,36 27.27909,36 Z" /></clipPath><clipPath
       id="clipPath26"
       clipPathUnits="userSpaceOnUse"><path
         id="path24"
         d="M -598,-1231 H 152 V 103 h -750 z" /></clipPath></defs><g
     transform="matrix(1.3333333,0,0,-1.3333333,0,48)"
     id="g10"><g
       id="g12" /><g
       id="g14"><g
         clip-path="url(#clipPath20)"
         id="g16"><g
           clip-path="url(#clipPath26)"
           id="g22"><path
             id="path28"
             style="fill:#ffffff;fill-opacity:1;fill-rule:nonzero;stroke:none"
             d="M -5,41 H 43 V -5 H -5 Z" /></g></g></g></g></svg>